<?xml version="1.0" encoding="utf-8"?>
<!-- Generator: Adobe Illustrator 23.0.1, SVG Export Plug-In . SVG Version: 6.00 Build 0)  -->
<svg version="1.1" id="Warstwa_1" xmlns="http://www.w3.org/2000/svg" xmlns:xlink="http://www.w3.org/1999/xlink" x="0px" y="0px"
	 viewBox="0 0 1418 200" style="enable-background:new 0 0 1418 200;" xml:space="preserve">
<style type="text/css">
	.st0{fill-rule:evenodd;clip-rule:evenodd;fill:#0081C4;}
	.st1{fill-rule:evenodd;clip-rule:evenodd;fill:#F7943E;}
	.st2{enable-background:new    ;}
	.st3{fill:#0081C4;}
	.st4{fill:#F7943E;}
</style>
<g>
	<path class="st0" d="M116.2,198.6c-5.6,0.9-11.4,1.4-17.4,1.4c-14.6,0-28-2.8-40.3-8.4c-12.3-5.6-23.4-13.7-33.3-24.7
		c-8.2-9.1-14.5-19.5-18.8-31.1C2.2,124.2,0,111.9,0,98.9c0-13.4,2.6-26.1,7.8-38.1S20.6,37.9,30.6,28c9.5-9.4,20-16.4,31.7-21
		C74.1,2.4,87,0.1,101.1,0.1c20.7,0,38.6,5.1,53.6,15.2c15.1,10.1,26.6,24.9,34.9,44.3h-45.7c-5.5-7-12.1-12.2-19.6-15.6
		c-7.5-3.5-15.9-5.2-25.3-5.2c-16.5,0-30.4,6-41.8,17.9C45.8,68.4,40,82.9,40,99.9c0,17.3,5.8,31.8,17.3,43.7s25.8,17.8,42.7,17.8
		c5.6,0,10.9-0.7,16-2.2L116.2,198.6L116.2,198.6z M193.6,131.6h-34.1v48.3c12.1-9.3,21.9-21.4,29.4-36.4
		C190.7,139.7,192.3,135.7,193.6,131.6z"/>
	<path class="st1" d="M197.7,93.9c0,0.7,0,1.8,0.1,3.3c0.1,1.4,0.1,2.5,0.1,3.2c0,8.3-0.8,15.9-2.3,23l-0.6,2.7h-41.2v5.5v52.3
		l-2.1,1.4c-9.3,5.9-19.4,10-30.1,12.3v-40.3v-31.1h-44V93.9H197.7z"/>
</g>
<g class="st2">
	<path class="st3" d="M334.3,137.9c0,23.9-4.9,38.2-14.8,47.3c-10.2,9.1-24.7,12.3-37.7,12.3c-12.3,0-26-3-34.2-8.5l4.7-14.5
		c6.8,4.4,17.5,8.4,30.3,8.4c19.2,0,33.2-10,33.2-36.2v-11.4h-0.5c-5.5,9.6-16.9,17.2-32.9,17.2c-25.6,0-43.8-21.8-43.8-50.2
		c0-35,22.8-54.5,46.7-54.5c18,0,27.5,9.1,32.1,17.7h0.5l0.6-15.5h16.6c-0.6,7.3-0.9,15.8-0.9,28.2v59.8H334.3z M315.6,90.6
		c0-3.2-0.2-5.9-1.1-8.4c-3.3-11.1-12.3-20.1-26.2-20.1c-18,0-30.7,15.1-30.7,39c0,20.2,10.5,37.1,30.4,37.1
		c11.7,0,22.2-7.3,26-19.2c1.1-3.2,1.5-6.8,1.5-10L315.6,90.6L315.6,90.6z"/>
	<path class="st3" d="M375.7,104.9c0.5,25.4,16.4,35.8,35.3,35.8c13.4,0,21.8-2.3,28.6-5.3l3.3,13.4c-6.5,3-18.1,6.5-34.5,6.5
		c-31.8,0-50.7-21.2-50.7-52.2s18.3-55.4,48.4-55.4c33.9,0,42.6,29.4,42.6,48.4c0,3.8-0.2,6.5-0.6,8.7h-72.4V104.9z M430.7,91.5
		c0.2-11.7-4.9-30.3-26-30.3c-19.2,0-27.2,17.2-28.8,30.3H430.7z"/>
	<path class="st3" d="M565.3,100.7c0,38.2-26.6,54.8-51.3,54.8c-27.7,0-49.5-20.4-49.5-53.1c0-34.2,22.8-54.5,51.1-54.5
		C545.2,47.9,565.3,69.3,565.3,100.7z M483.8,101.7c0,22.5,12.8,39.6,31,39.6c18,0,31.3-16.9,31.3-40c0-17.5-8.7-39.4-30.9-39.4
		C493.4,61.9,483.8,82.2,483.8,101.7z"/>
	<path class="st3" d="M588.9,82.1c0-12.2-0.2-22.5-0.9-32.1h16.4l0.9,20.4h0.6c4.7-13.8,16.1-22.5,28.8-22.5c2,0,3.3,0.2,5.2,0.5V66
		c-2-0.5-3.8-0.5-6.4-0.5c-13.2,0-22.5,9.7-25.1,23.9c-0.5,2.6-0.6,5.8-0.6,8.7V153h-18.7V82.1H588.9z"/>
	<path class="st3" d="M745.2,137.9c0,23.9-4.9,38.2-14.8,47.3c-10.2,9.1-24.7,12.3-37.7,12.3c-12.3,0-26-3-34.2-8.5l4.7-14.5
		c6.8,4.4,17.5,8.4,30.3,8.4c19.2,0,33.2-10,33.2-36.2v-11.4h-0.5c-5.5,9.6-16.9,17.2-32.9,17.2c-25.6,0-43.8-21.8-43.8-50.2
		c0-35,22.8-54.5,46.7-54.5c18,0,27.5,9.1,32.1,17.7h0.5l0.6-15.5H746c-0.6,7.3-0.9,15.8-0.9,28.2v59.8H745.2z M726.3,90.6
		c0-3.2-0.2-5.9-1.1-8.4c-3.3-11.1-12.3-20.1-26.2-20.1c-18,0-30.7,15.1-30.7,39c0,20.2,10.5,37.1,30.4,37.1
		c11.7,0,22.2-7.3,26-19.2c1.1-3.2,1.5-6.8,1.5-10L726.3,90.6L726.3,90.6z"/>
	<path class="st3" d="M786.5,104.9c0.5,25.4,16.4,35.8,35.3,35.8c13.4,0,21.8-2.3,28.6-5.3l3.3,13.4c-6.5,3-18.1,6.5-34.5,6.5
		c-31.8,0-50.7-21.2-50.7-52.2s18.3-55.4,48.4-55.4c33.9,0,42.6,29.4,42.6,48.4c0,3.8-0.2,6.5-0.6,8.7h-72.4V104.9z M841.4,91.5
		c0.2-11.7-4.9-30.3-26-30.3c-19.2,0-27.2,17.2-28.8,30.3H841.4z"/>
	<path class="st4" d="M916.4,20.8v28.2h23.3v23.9h-23.3v37.7c0,12.6,3.2,18.3,12.8,18.3c4.4,0,6.5-0.2,9.6-0.9l0.2,24.5
		c-4.1,1.5-11.9,2.7-20.8,2.7c-10.5,0-19.2-3.7-24.5-9c-5.9-6.2-9-16.1-9-30.9V72.7h-13.8V48.9h13.8V29.4L916.4,20.8z"/>
	<path class="st4" d="M982.3,111.3c0.9,13.4,14.3,19.8,29.4,19.8c11.1,0,20.1-1.5,28.8-4.4l4.3,21.9c-10.7,4.4-23.6,6.5-37.7,6.5
		c-35.3,0-55.5-20.4-55.5-53.1c0-26.5,16.4-55.5,52.7-55.5c33.6,0,46.4,26.2,46.4,52c0,5.5-0.6,10.5-1.1,12.8
		C1049.4,111.3,982.3,111.3,982.3,111.3z M1020.4,89.1c0-7.9-3.3-21.2-18.3-21.2c-13.7,0-19.2,12.6-20.1,21.2H1020.4z"/>
	<path class="st4" d="M1168.4,137.9c0,20.1-4.1,36.4-16,46.9c-11.3,9.7-26.8,12.8-42.2,12.8c-13.8,0-28.2-2.7-37.4-7.9l6.4-24.7
		c6.5,3.8,18,7.9,30.3,7.9c15.4,0,27.1-8.1,27.1-27.5v-6.5h-0.5c-6.2,8.5-16.1,13.4-28.2,13.4c-25.7,0-44.1-20.8-44.1-50.7
		c0-33.6,21.5-54.9,47.3-54.9c14.3,0,23.3,6.2,28.6,14.9h0.5l1.1-12.6h28.2c-0.5,6.8-0.9,15.5-0.9,31v58H1168.4z M1136.2,91.2
		c0-2-0.2-4.1-0.6-5.9c-2.3-8.5-8.5-14.3-17.5-14.3c-11.9,0-21.3,10.7-21.3,29.7c0,15.5,7.6,27.7,21.2,27.7
		c8.5,0,15.1-5.5,17.2-12.9c0.9-2.6,1.1-5.9,1.1-8.7V91.2z"/>
	<path class="st4" d="M1194.4,83.2c0-15.4-0.2-25.4-0.9-34.2h27.7l1.2,19.2h0.9c5.3-15.4,18-21.8,28.2-21.8c3,0,4.4,0.2,6.8,0.6
		v30.4c-2.6-0.5-5.2-0.9-8.7-0.9c-11.9,0-20.1,6.4-22.2,16.4c-0.5,2.1-0.6,4.7-0.6,7.3V153h-32.4V83.2z"/>
	<path class="st4" d="M1359.9,127.9c0,9.7,0.5,19.3,1.7,25.1h-29.2l-2-10.5h-0.6c-6.8,8.4-17.5,12.8-29.8,12.8
		c-21.2,0-33.6-15.4-33.6-32c0-27.1,24.3-39.9,61.2-39.9v-1.2c0-5.8-3-13.7-19-13.7c-10.7,0-21.9,3.7-28.8,7.9l-5.9-20.8
		c7.3-4.1,21.5-9.4,40.5-9.4c34.7,0,45.7,20.4,45.7,45.2L1359.9,127.9L1359.9,127.9z M1328.5,103.9c-17,0-30.3,4.1-30.3,16.4
		c0,8.4,5.5,12.3,12.8,12.3c7.9,0,14.8-5.3,16.9-11.9c0.5-1.7,0.6-3.7,0.6-5.5V103.9z"/>
	<path class="st4" d="M1385.6,1.7h32.4V153h-32.4V1.7z"/>
</g>
</svg>
