<?xml version="1.0" encoding="utf-8"?>
<!-- Generator: Adobe Illustrator 23.0.1, SVG Export Plug-In . SVG Version: 6.00 Build 0)  -->
<svg version="1.1" id="Warstwa_1" xmlns="http://www.w3.org/2000/svg" xmlns:xlink="http://www.w3.org/1999/xlink" x="0px" y="0px"
	 viewBox="0 0 1040 200" style="enable-background:new 0 0 1040 200;" xml:space="preserve">
<style type="text/css">
	.st0{fill-rule:evenodd;clip-rule:evenodd;fill:#0081C4;}
	.st1{fill-rule:evenodd;clip-rule:evenodd;fill:#F7943E;}
	.st2{enable-background:new    ;}
	.st3{fill:#0081C4;}
	.st4{fill:#F7943E;}
</style>
<g>
	<path class="st0" d="M116.2,198.6c-5.6,0.9-11.4,1.4-17.4,1.4c-14.6,0-28-2.8-40.3-8.4c-12.3-5.6-23.4-13.7-33.3-24.7
		c-8.2-9.1-14.5-19.5-18.8-31.1C2.2,124.2,0,111.9,0,98.9c0-13.4,2.6-26.1,7.8-38.1c5.2-12,12.8-22.9,22.8-32.8
		c9.5-9.4,20-16.4,31.7-21C74.1,2.4,87,0.1,101.1,0.1c20.7,0,38.6,5.1,53.6,15.2c15.1,10.1,26.6,24.9,34.9,44.3h-45.7
		c-5.5-7-12.1-12.2-19.6-15.6c-7.5-3.5-15.9-5.2-25.3-5.2c-16.5,0-30.4,6-41.8,17.9C45.8,68.4,40,82.9,40,99.9
		c0,17.3,5.8,31.8,17.3,43.7s25.8,17.8,42.7,17.8c5.6,0,10.9-0.7,16-2.2L116.2,198.6L116.2,198.6z M193.6,131.6h-34.1v48.3
		c12.1-9.3,21.9-21.4,29.4-36.4C190.7,139.7,192.3,135.7,193.6,131.6z"/>
	<path class="st1" d="M197.7,93.9c0,0.7,0,1.8,0.1,3.3c0.1,1.4,0.1,2.5,0.1,3.2c0,8.3-0.8,15.9-2.3,23l-0.6,2.7h-41.2v5.5v52.3
		l-2.1,1.4c-9.3,5.9-19.4,10-30.1,12.3v-40.3v-31.1h-44V93.9H197.7z"/>
</g>
<g class="st2">
	<path class="st3" d="M301.5,121.7c0,15.7-3.2,25.1-9.7,31.1c-6.7,6-16.2,8.1-24.8,8.1c-8.1,0-17.1-2-22.5-5.6l3.1-9.5
		c4.5,2.9,11.5,5.5,19.9,5.5c12.6,0,21.8-6.6,21.8-23.8V120h-0.3c-3.6,6.3-11.1,11.3-21.6,11.3c-16.8,0-28.8-14.3-28.8-33
		c0-23,15-35.8,30.7-35.8c11.8,0,18.1,6,21.1,11.6h0.3l0.4-10.2h10.9c-0.4,4.8-0.6,10.4-0.6,18.5V121.7z M289.2,90.6
		c0-2.1-0.1-3.9-0.7-5.5c-2.2-7.3-8.1-13.2-17.2-13.2c-11.8,0-20.2,9.9-20.2,25.6c0,13.3,6.9,24.4,20,24.4c7.7,0,14.6-4.8,17.1-12.6
		c0.7-2.1,1-4.5,1-6.6V90.6z"/>
	<path class="st3" d="M328.7,100c0.3,16.7,10.8,23.5,23.2,23.5c8.8,0,14.3-1.5,18.8-3.5l2.2,8.8c-4.3,2-11.9,4.3-22.7,4.3
		c-20.9,0-33.3-13.9-33.3-34.3c0-20.4,12-36.4,31.8-36.4c22.3,0,28,19.3,28,31.8c0,2.5-0.1,4.3-0.4,5.7H328.7z M364.8,91.2
		c0.1-7.7-3.2-19.9-17.1-19.9c-12.6,0-17.9,11.3-18.9,19.9H364.8z"/>
	<path class="st3" d="M453.3,97.2c0,25.1-17.5,36-33.7,36c-18.2,0-32.5-13.4-32.5-34.9c0-22.5,15-35.8,33.6-35.8
		C440.1,62.5,453.3,76.6,453.3,97.2z M399.7,97.9c0,14.8,8.4,26,20.4,26c11.8,0,20.6-11.1,20.6-26.3c0-11.5-5.7-25.9-20.3-25.9
		C406,71.7,399.7,85.1,399.7,97.9z"/>
	<path class="st3" d="M468.8,85c0-8-0.1-14.8-0.6-21.1h10.8l0.6,13.4h0.4c3.1-9.1,10.6-14.8,18.9-14.8c1.3,0,2.2,0.1,3.4,0.3v11.6
		c-1.3-0.3-2.5-0.3-4.2-0.3c-8.7,0-14.8,6.4-16.5,15.7c-0.3,1.7-0.4,3.8-0.4,5.7v36.1h-12.3V85z"/>
	<path class="st3" d="M571.5,121.7c0,15.7-3.2,25.1-9.7,31.1c-6.7,6-16.2,8.1-24.8,8.1c-8.1,0-17.1-2-22.5-5.6l3.1-9.5
		c4.5,2.9,11.5,5.5,19.9,5.5c12.6,0,21.8-6.6,21.8-23.8V120H559c-3.6,6.3-11.1,11.3-21.6,11.3c-16.8,0-28.8-14.3-28.8-33
		c0-23,15-35.8,30.7-35.8c11.8,0,18.1,6,21.1,11.6h0.3l0.4-10.2H572c-0.4,4.8-0.6,10.4-0.6,18.5V121.7z M559.1,90.6
		c0-2.1-0.1-3.9-0.7-5.5c-2.2-7.3-8.1-13.2-17.2-13.2c-11.8,0-20.2,9.9-20.2,25.6c0,13.3,6.9,24.4,20,24.4c7.7,0,14.6-4.8,17.1-12.6
		c0.7-2.1,1-4.5,1-6.6V90.6z"/>
	<path class="st3" d="M598.6,100c0.3,16.7,10.8,23.5,23.2,23.5c8.8,0,14.3-1.5,18.8-3.5l2.2,8.8c-4.3,2-11.9,4.3-22.7,4.3
		c-20.9,0-33.3-13.9-33.3-34.3c0-20.4,12-36.4,31.8-36.4c22.3,0,28,19.3,28,31.8c0,2.5-0.1,4.3-0.4,5.7H598.6z M634.7,91.2
		c0.1-7.7-3.2-19.9-17.1-19.9c-12.6,0-17.9,11.3-18.9,19.9H634.7z"/>
	<path class="st4" d="M684,44.7v18.5h15.3v15.7H684v24.8c0,8.3,2.1,12,8.4,12c2.9,0,4.3-0.1,6.3-0.6l0.1,16.1
		c-2.7,1-7.8,1.8-13.7,1.8c-6.9,0-12.6-2.4-16.1-5.9c-3.9-4.1-5.9-10.6-5.9-20.3v-28h-9.1V63.2h9.1V50.4L684,44.7z"/>
	<path class="st4" d="M727.3,104.2c0.6,8.8,9.4,13,19.3,13c7.3,0,13.2-1,18.9-2.9l2.8,14.4c-7,2.9-15.5,4.3-24.8,4.3
		c-23.2,0-36.5-13.4-36.5-34.9c0-17.4,10.8-36.5,34.6-36.5c22.1,0,30.5,17.2,30.5,34.2c0,3.6-0.4,6.9-0.7,8.4H727.3z M752.3,89.6
		c0-5.2-2.2-13.9-12-13.9c-9,0-12.6,8.3-13.2,13.9H752.3z"/>
	<path class="st4" d="M849.6,121.7c0,13.2-2.7,23.9-10.5,30.8c-7.4,6.4-17.6,8.4-27.7,8.4c-9.1,0-18.5-1.8-24.6-5.2l4.2-16.2
		c4.3,2.5,11.8,5.2,19.9,5.2c10.1,0,17.8-5.3,17.8-18.1v-4.3h-0.3c-4.1,5.6-10.6,8.8-18.5,8.8c-16.9,0-29-13.7-29-33.3
		c0-22.1,14.1-36.1,31.1-36.1c9.4,0,15.3,4.1,18.8,9.8h0.3l0.7-8.3h18.5c-0.3,4.5-0.6,10.2-0.6,20.4V121.7z M828.4,91
		c0-1.3-0.1-2.7-0.4-3.9c-1.5-5.6-5.6-9.4-11.5-9.4c-7.8,0-14,7-14,19.5c0,10.2,5,18.2,13.9,18.2c5.6,0,9.9-3.6,11.3-8.5
		c0.6-1.7,0.7-3.9,0.7-5.7V91z"/>
	<path class="st4" d="M866.7,85.7c0-10.1-0.1-16.7-0.6-22.5h18.2l0.8,12.6h0.6c3.5-10.1,11.8-14.3,18.5-14.3c2,0,2.9,0.1,4.5,0.4v20
		c-1.7-0.3-3.4-0.6-5.7-0.6c-7.8,0-13.2,4.2-14.6,10.8c-0.3,1.4-0.4,3.1-0.4,4.8v34.7h-21.3V85.7z"/>
	<path class="st4" d="M975.4,115.1c0,6.4,0.3,12.7,1.1,16.5h-19.2l-1.3-6.9h-0.4c-4.5,5.5-11.5,8.4-19.6,8.4
		c-13.9,0-22.1-10.1-22.1-21c0-17.8,16-26.2,40.2-26.2v-0.8c0-3.8-2-9-12.5-9c-7,0-14.4,2.4-18.9,5.2l-3.9-13.7
		c4.8-2.7,14.1-6.2,26.6-6.2c22.8,0,30,13.4,30,29.7V115.1z M954.8,99.3c-11.2,0-19.9,2.7-19.9,10.8c0,5.5,3.6,8.1,8.4,8.1
		c5.2,0,9.7-3.5,11.1-7.8c0.3-1.1,0.4-2.4,0.4-3.6V99.3z"/>
	<path class="st4" d="M992.3,32.2h21.3v99.4h-21.3V32.2z"/>
</g>
</svg>
