<?xml version="1.0" encoding="utf-8"?>
<!-- Generator: Adobe Illustrator 23.0.1, SVG Export Plug-In . SVG Version: 6.00 Build 0)  -->
<svg version="1.1" id="Warstwa_1" xmlns="http://www.w3.org/2000/svg" xmlns:xlink="http://www.w3.org/1999/xlink" x="0px" y="0px"
	 viewBox="0 0 173.2 200" style="enable-background:new 0 0 173.2 200;" xml:space="preserve">
<style type="text/css">
	.st0{fill-rule:evenodd;clip-rule:evenodd;fill:#0081C4;}
	.st1{fill-rule:evenodd;clip-rule:evenodd;fill:#F7943E;}
</style>
<g>
	<path class="st0" d="M101.44,185.19c-4.84,0.78-9.84,1.17-15,1.17c-12.57,0-24.17-2.42-34.8-7.21
		c-10.66-4.79-20.24-11.87-28.73-21.33c-7.09-7.9-12.5-16.86-16.2-26.91C2.98,120.87,1.1,110.25,1.1,98.98
		c0-11.55,2.27-22.54,6.75-32.94c4.46-10.36,11.05-19.81,19.74-28.34c8.22-8.14,17.32-14.18,27.4-18.16
		c10.09-3.92,21.26-5.92,33.49-5.92c17.87,0,33.33,4.36,46.33,13.13c13.01,8.72,23.01,21.48,30.1,38.31h-39.48
		c-4.79-6-10.43-10.51-16.95-13.51c-6.5-3-13.78-4.52-21.82-4.52c-14.22,0-26.25,5.15-36.13,15.42
		c-9.9,10.24-14.84,22.73-14.84,37.41c0,14.91,4.98,27.49,14.98,37.73c10,10.24,22.31,15.33,36.91,15.33
		c4.83,0,9.45-0.62,13.86-1.86V185.19L101.44,185.19z M168.32,127.29h-29.48v41.72c10.42-8.05,18.89-18.53,25.4-31.47
		C165.86,134.25,167.22,130.83,168.32,127.29z"/>
	<path class="st1" d="M171.87,94.74c0,0.63,0.03,1.55,0.12,2.81c0.08,1.24,0.11,2.18,0.11,2.79c0,7.13-0.66,13.78-1.94,19.9
		l-0.53,2.33h-35.57v4.71v45.15l-1.83,1.18c-8.05,5.05-16.71,8.61-26.01,10.66v-34.83v-26.87H68.18V94.74H171.87z"/>
</g>
</svg>
